<svg width="330" height="296" viewBox="0 0 330 296" fill="none" xmlns="http://www.w3.org/2000/svg">
  <path d="M120 150.298C127.95 152.402 132.75 160.669 130.65 168.634L111.15 241.228C109.05 249.344 100.8 254.004 92.8501 251.899C90.9427 251.421 89.1522 250.558 87.5877 249.365C86.0232 248.171 84.7172 246.671 83.7492 244.956C82.7811 243.241 82.1712 241.347 81.9565 239.388C81.7418 237.43 81.9267 235.448 82.5001 233.563L101.7 160.969C103.8 152.853 112.05 148.194 120 150.298ZM180 150.298C187.95 152.402 192.75 160.669 190.65 168.634L159.6 284.815C157.5 293.081 149.25 297.59 141.15 295.486C133.2 293.081 128.4 285.115 130.5 276.999L161.7 160.969C163.8 152.853 172.05 148.194 180 150.298ZM240 150.298C247.95 152.402 252.75 160.669 250.65 168.634L231.15 241.228C229.05 249.344 220.8 254.004 212.85 251.899C210.943 251.421 209.152 250.558 207.588 249.365C206.023 248.171 204.717 246.671 203.749 244.956C202.781 243.241 202.171 241.347 201.956 239.388C201.742 237.43 201.927 235.448 202.5 233.563L221.7 160.969C223.8 152.853 232.05 148.194 240 150.298ZM240 120.238V105.209C240 85.2778 232.098 66.1634 218.033 52.0702C203.968 37.977 184.891 30.0596 165 30.0596C127.5 30.0596 96.7501 57.4138 90.9001 93.0344C85.9501 91.2308 80.5501 90.1788 75.0002 90.1788C63.0654 90.1788 51.6195 94.9292 43.1804 103.385C34.7412 111.841 30.0002 123.31 30.0002 135.268C30.0002 151.951 39.0002 166.53 52.5002 174.346V174.195C60.0002 178.404 62.1002 187.872 58.0502 194.786C53.8502 201.85 45.0002 204.405 37.5002 200.197V200.347C26.0785 193.775 16.594 184.294 10.0084 172.865C3.42271 161.436 -0.0300276 148.465 0.000196739 135.268C0.000196739 115.337 7.90195 96.223 21.9672 82.1298C36.0324 68.0366 55.1089 60.1192 75.0002 60.1192C90.0001 24.7992 124.5 0 165 0C216.45 0 258.6 39.9792 262.5 90.6297L270 90.1788C285.913 90.1788 301.174 96.5127 312.426 107.787C323.679 119.062 330 134.353 330 150.298C330 172.843 318 191.93 300 202.301C292.5 206.359 283.65 203.954 279.45 196.74C275.4 189.526 277.5 180.358 285 176.149V176.299C294 171.189 300 161.42 300 150.298C300 142.326 296.839 134.68 291.213 129.043C285.587 123.405 277.957 120.238 270 120.238H240Z" fill="#9CE1FF"/>
</svg>