<svg width="332" height="331" viewBox="0 0 332 331" fill="none" xmlns="http://www.w3.org/2000/svg">
  <path d="M38.5458 271.645L59.8133 292.913L86.9633 265.913L65.545 244.495L38.5458 271.645ZM150.917 330.621H181.083V286.125H150.917V330.621ZM166 74.9583C141.998 74.9583 118.979 84.4931 102.007 101.465C85.0348 118.437 75.5 141.456 75.5 165.458C75.5 189.46 85.0348 212.479 102.007 229.452C118.979 246.424 141.998 255.958 166 255.958C190.002 255.958 213.021 246.424 229.993 229.452C246.965 212.479 256.5 189.46 256.5 165.458C256.5 115.382 215.926 74.9583 166 74.9583ZM286.667 180.542H331.917V150.375H286.667V180.542ZM245.037 265.913L272.187 292.913L293.454 271.645L266.455 244.495L245.037 265.913ZM293.454 59.2717L272.187 38.0042L245.037 65.0033L266.455 86.4217L293.454 59.2717ZM181.083 0.295837H150.917V44.7917H181.083V0.295837ZM45.3333 150.375H0.0833435V180.542H45.3333V150.375ZM86.9633 65.0033L59.8133 38.0042L38.5458 59.2717L65.545 86.4217L86.9633 65.0033Z" fill="#ECD400"/>
</svg>